<mxfile host="65bd71144e">
    <diagram id="dCtG8qJuBhabPT5p4WdQ" name="Página-1">
        <mxGraphModel dx="2344" dy="2881" grid="0" gridSize="10" guides="1" tooltips="1" connect="1" arrows="1" fold="1" page="0" pageScale="1" pageWidth="827" pageHeight="1169" math="0" shadow="0">
            <root>
                <mxCell id="0"/>
                <mxCell id="1" parent="0"/>
                <mxCell id="4" value="Pool" style="swimlane;childLayout=stackLayout;resizeParent=1;resizeParentMax=0;startSize=20;" vertex="1" parent="1">
                    <mxGeometry x="-1298" y="-2057" width="600" height="480" as="geometry">
                        <mxRectangle x="-1298" y="-2057" width="53" height="20" as="alternateBounds"/>
                    </mxGeometry>
                </mxCell>
                <mxCell id="5" value="Restrição" style="swimlane;startSize=20;" vertex="1" parent="4">
                    <mxGeometry y="20" width="120" height="460" as="geometry">
                        <mxRectangle y="20" width="24" height="460" as="alternateBounds"/>
                    </mxGeometry>
                </mxCell>
                <mxCell id="6" value="Atributo" style="swimlane;startSize=20;" vertex="1" parent="4">
                    <mxGeometry x="120" y="20" width="120" height="460" as="geometry"/>
                </mxCell>
                <mxCell id="7" value="Dado" style="swimlane;startSize=20;" vertex="1" parent="4">
                    <mxGeometry x="240" y="20" width="120" height="460" as="geometry"/>
                </mxCell>
                <mxCell id="18" value="quadro" style="text;html=1;resizable=0;autosize=1;align=center;verticalAlign=middle;points=[];fillColor=none;strokeColor=none;rounded=0;" vertex="1" parent="7">
                    <mxGeometry x="38.5" y="214" width="47" height="18" as="geometry"/>
                </mxCell>
                <mxCell id="19" value="freios" style="text;html=1;resizable=0;autosize=1;align=center;verticalAlign=middle;points=[];fillColor=none;strokeColor=none;rounded=0;" vertex="1" parent="7">
                    <mxGeometry x="43" y="245" width="39" height="18" as="geometry"/>
                </mxCell>
                <mxCell id="20" value="guidão" style="text;html=1;resizable=0;autosize=1;align=center;verticalAlign=middle;points=[];fillColor=none;strokeColor=none;rounded=0;" vertex="1" parent="7">
                    <mxGeometry x="39.5" y="183" width="46" height="18" as="geometry"/>
                </mxCell>
                <mxCell id="21" value="banco" style="text;html=1;resizable=0;autosize=1;align=center;verticalAlign=middle;points=[];fillColor=none;strokeColor=none;rounded=0;" vertex="1" parent="7">
                    <mxGeometry x="41" y="152" width="43" height="18" as="geometry"/>
                </mxCell>
                <mxCell id="22" value="transmição" style="text;html=1;resizable=0;autosize=1;align=center;verticalAlign=middle;points=[];fillColor=none;strokeColor=none;rounded=0;" vertex="1" parent="7">
                    <mxGeometry x="28" y="276" width="69" height="18" as="geometry"/>
                </mxCell>
                <mxCell id="23" value="rodas" style="text;html=1;resizable=0;autosize=1;align=center;verticalAlign=middle;points=[];fillColor=none;strokeColor=none;rounded=0;" vertex="1" parent="7">
                    <mxGeometry x="42" y="307" width="40" height="18" as="geometry"/>
                </mxCell>
                <mxCell id="24" value="acessórios" style="text;html=1;resizable=0;autosize=1;align=center;verticalAlign=middle;points=[];fillColor=none;strokeColor=none;rounded=0;" vertex="1" parent="7">
                    <mxGeometry x="28.5" y="121" width="67" height="18" as="geometry"/>
                </mxCell>
                <mxCell id="14" value="informação" style="swimlane;startSize=20;" vertex="1" parent="4">
                    <mxGeometry x="360" y="20" width="120" height="460" as="geometry"/>
                </mxCell>
                <mxCell id="17" value="bicicleta" style="text;html=1;resizable=0;autosize=1;align=center;verticalAlign=middle;points=[];fillColor=none;strokeColor=none;rounded=0;" vertex="1" parent="14">
                    <mxGeometry x="35.5" y="214" width="53" height="18" as="geometry"/>
                </mxCell>
                <mxCell id="15" value="Conhecimento" style="swimlane;startSize=20;" vertex="1" parent="4">
                    <mxGeometry x="480" y="20" width="120" height="460" as="geometry"/>
                </mxCell>
                <mxCell id="33" value="quadro" style="text;html=1;resizable=0;autosize=1;align=center;verticalAlign=middle;points=[];fillColor=none;strokeColor=none;rounded=0;" vertex="1" parent="1">
                    <mxGeometry x="-895.5" y="-1392" width="47" height="18" as="geometry"/>
                </mxCell>
                <mxCell id="34" value="freios" style="text;html=1;resizable=0;autosize=1;align=center;verticalAlign=middle;points=[];fillColor=none;strokeColor=none;rounded=0;" vertex="1" parent="1">
                    <mxGeometry x="-891" y="-1361" width="39" height="18" as="geometry"/>
                </mxCell>
                <mxCell id="35" value="guidão" style="text;html=1;resizable=0;autosize=1;align=center;verticalAlign=middle;points=[];fillColor=none;strokeColor=none;rounded=0;" vertex="1" parent="1">
                    <mxGeometry x="-894.5" y="-1423" width="46" height="18" as="geometry"/>
                </mxCell>
                <mxCell id="36" value="banco" style="text;html=1;resizable=0;autosize=1;align=center;verticalAlign=middle;points=[];fillColor=none;strokeColor=none;rounded=0;" vertex="1" parent="1">
                    <mxGeometry x="-893" y="-1454" width="43" height="18" as="geometry"/>
                </mxCell>
                <mxCell id="37" value="transmição" style="text;html=1;resizable=0;autosize=1;align=center;verticalAlign=middle;points=[];fillColor=none;strokeColor=none;rounded=0;" vertex="1" parent="1">
                    <mxGeometry x="-906" y="-1330" width="69" height="18" as="geometry"/>
                </mxCell>
                <mxCell id="65" value="" style="edgeStyle=none;html=1;entryX=-0.015;entryY=0.779;entryDx=0;entryDy=0;entryPerimeter=0;" edge="1" parent="1" source="38" target="40">
                    <mxGeometry relative="1" as="geometry">
                        <mxPoint x="-812" y="-1289.9999999999998" as="targetPoint"/>
                    </mxGeometry>
                </mxCell>
                <mxCell id="38" value="rodas" style="text;html=1;resizable=0;autosize=1;align=center;verticalAlign=middle;points=[];fillColor=none;strokeColor=none;rounded=0;" vertex="1" parent="1">
                    <mxGeometry x="-892" y="-1299" width="40" height="18" as="geometry"/>
                </mxCell>
                <mxCell id="63" value="" style="edgeStyle=none;html=1;entryX=-0.001;entryY=0.532;entryDx=0;entryDy=0;entryPerimeter=0;" edge="1" parent="1" source="39" target="40">
                    <mxGeometry relative="1" as="geometry">
                        <mxPoint x="-785" y="-1476" as="targetPoint"/>
                    </mxGeometry>
                </mxCell>
                <mxCell id="39" value="acessórios" style="text;html=1;resizable=0;autosize=1;align=center;verticalAlign=middle;points=[];fillColor=none;strokeColor=none;rounded=0;" vertex="1" parent="1">
                    <mxGeometry x="-905.5" y="-1485" width="67" height="18" as="geometry"/>
                </mxCell>
                <mxCell id="40" value="bicicleta" style="text;html=1;resizable=0;autosize=1;align=center;verticalAlign=middle;points=[];fillColor=none;strokeColor=none;rounded=0;" vertex="1" parent="1">
                    <mxGeometry x="-778.5" y="-1392" width="53" height="18" as="geometry"/>
                </mxCell>
                <mxCell id="42" value="raios" style="text;html=1;resizable=0;autosize=1;align=center;verticalAlign=middle;points=[];fillColor=none;strokeColor=none;rounded=0;" vertex="1" parent="1">
                    <mxGeometry x="-1003" y="-1299" width="36" height="18" as="geometry"/>
                </mxCell>
                <mxCell id="43" value="aro" style="text;html=1;resizable=0;autosize=1;align=center;verticalAlign=middle;points=[];fillColor=none;strokeColor=none;rounded=0;" vertex="1" parent="1">
                    <mxGeometry x="-998" y="-1330" width="27" height="18" as="geometry"/>
                </mxCell>
                <mxCell id="44" value="camara" style="text;html=1;resizable=0;autosize=1;align=center;verticalAlign=middle;points=[];fillColor=none;strokeColor=none;rounded=0;" vertex="1" parent="1">
                    <mxGeometry x="-1009" y="-1361" width="50" height="18" as="geometry"/>
                </mxCell>
                <mxCell id="45" value="cubo" style="text;html=1;resizable=0;autosize=1;align=center;verticalAlign=middle;points=[];fillColor=none;strokeColor=none;rounded=0;" vertex="1" parent="1">
                    <mxGeometry x="-1002.5" y="-1268" width="36" height="18" as="geometry"/>
                </mxCell>
                <mxCell id="46" value="eixo" style="text;html=1;resizable=0;autosize=1;align=center;verticalAlign=middle;points=[];fillColor=none;strokeColor=none;rounded=0;" vertex="1" parent="1">
                    <mxGeometry x="-1000" y="-1237" width="32" height="18" as="geometry"/>
                </mxCell>
                <mxCell id="60" value="" style="edgeStyle=none;html=1;exitX=1.034;exitY=0.485;exitDx=0;exitDy=0;exitPerimeter=0;entryX=-0.075;entryY=0.625;entryDx=0;entryDy=0;entryPerimeter=0;" edge="1" parent="1" source="48" target="38">
                    <mxGeometry relative="1" as="geometry">
                        <mxPoint x="-894.5" y="-1197" as="targetPoint"/>
                    </mxGeometry>
                </mxCell>
                <mxCell id="47" value="rolamentos" style="text;html=1;resizable=0;autosize=1;align=center;verticalAlign=middle;points=[];fillColor=none;strokeColor=none;rounded=0;" vertex="1" parent="1">
                    <mxGeometry x="-1018" y="-1206" width="69" height="18" as="geometry"/>
                </mxCell>
                <mxCell id="48" value="porcas" style="text;html=1;resizable=0;autosize=1;align=center;verticalAlign=middle;points=[];fillColor=none;strokeColor=none;rounded=0;" vertex="1" parent="1">
                    <mxGeometry x="-1007" y="-1175" width="46" height="18" as="geometry"/>
                </mxCell>
                <mxCell id="61" value="" style="edgeStyle=none;html=1;entryX=-0.056;entryY=0.543;entryDx=0;entryDy=0;entryPerimeter=0;" edge="1" parent="1" source="49" target="38">
                    <mxGeometry relative="1" as="geometry"/>
                </mxCell>
                <mxCell id="49" value="pneu" style="text;html=1;resizable=0;autosize=1;align=center;verticalAlign=middle;points=[];fillColor=none;strokeColor=none;rounded=0;" vertex="1" parent="1">
                    <mxGeometry x="-1002.5" y="-1392" width="37" height="18" as="geometry"/>
                </mxCell>
                <mxCell id="51" value="elem. rolante" style="text;html=1;resizable=0;autosize=1;align=center;verticalAlign=middle;points=[];fillColor=none;strokeColor=none;rounded=0;" vertex="1" parent="1">
                    <mxGeometry x="-1137" y="-1206" width="79" height="18" as="geometry"/>
                </mxCell>
                <mxCell id="52" value="gaiola" style="text;html=1;resizable=0;autosize=1;align=center;verticalAlign=middle;points=[];fillColor=none;strokeColor=none;rounded=0;" vertex="1" parent="1">
                    <mxGeometry x="-1118" y="-1175" width="42" height="18" as="geometry"/>
                </mxCell>
                <mxCell id="53" value="anel externo" style="text;html=1;resizable=0;autosize=1;align=center;verticalAlign=middle;points=[];fillColor=none;strokeColor=none;rounded=0;" vertex="1" parent="1">
                    <mxGeometry x="-1135.5" y="-1237" width="76" height="18" as="geometry"/>
                </mxCell>
                <mxCell id="58" value="" style="edgeStyle=none;html=1;entryX=-0.042;entryY=0.808;entryDx=0;entryDy=0;entryPerimeter=0;" edge="1" parent="1" source="54" target="47">
                    <mxGeometry relative="1" as="geometry"/>
                </mxCell>
                <mxCell id="54" value="anel interno" style="text;html=1;resizable=0;autosize=1;align=center;verticalAlign=middle;points=[];fillColor=none;strokeColor=none;rounded=0;" vertex="1" parent="1">
                    <mxGeometry x="-1132" y="-1144" width="73" height="18" as="geometry"/>
                </mxCell>
                <mxCell id="57" value="" style="edgeStyle=none;html=1;entryX=-0.043;entryY=0.667;entryDx=0;entryDy=0;entryPerimeter=0;" edge="1" parent="1" source="55" target="47">
                    <mxGeometry relative="1" as="geometry"/>
                </mxCell>
                <mxCell id="55" value="vedação" style="text;html=1;resizable=0;autosize=1;align=center;verticalAlign=middle;points=[];fillColor=none;strokeColor=none;rounded=0;" vertex="1" parent="1">
                    <mxGeometry x="-1124.5" y="-1268" width="55" height="18" as="geometry"/>
                </mxCell>
            </root>
        </mxGraphModel>
    </diagram>
</mxfile>